PathFileType	4	(X/Y/Z)	RBDS002\RBDS002runT25.trc
DataRate	CameraRate	NumFrames	NumMarkers	Units	OrigDataRate	OrigDataStartFrame	OrigNumFrames
150.000000	150.000000	4	33	mm	150.000000	0	4500
Frame#	Time	L.ASIS			L.Heel.Bottom			L.Heel.Lateral			L.Heel.Top			L.Iliac.Crest			L.MT1			L.MT5			L.PSIS			L.Shank.Bottom.Lateral			L.Shank.Bottom.Medial			L.Shank.Top.Lateral			L.Shank.Top.Medial			L.Thigh.Bottom.Lateral			L.Thigh.Bottom.Medial			L.Thigh.Top.Lateral			L.Thigh.Top.Medial			R.ASIS			R.ASY			R.Heel.Bottom			R.Heel.Lateral			R.Heel.Top			R.Iliac.Crest			R.MT1			R.MT5			R.PSIS			R.Shank.Bottom.Lateral			R.Shank.Bottom.Medial			R.Shank.Top.Lateral			R.Shank.Top.Medial			R.Thigh.Bottom.Lateral			R.Thigh.Bottom.Medial			R.Thigh.Top.Lateral			R.Thigh.Top.Medial			
		X1	Y1	Z1	X2	Y2	Z2	X3	Y3	Z3	X4	Y4	Z4	X5	Y5	Z5	X6	Y6	Z6	X7	Y7	Z7	X8	Y8	Z8	X9	Y9	Z9	X10	Y10	Z10	X11	Y11	Z11	X12	Y12	Z12	X13	Y13	Z13	X14	Y14	Z14	X15	Y15	Z15	X16	Y16	Z16	X17	Y17	Z17	X18	Y18	Z18	X19	Y19	Z19	X20	Y20	Z20	X21	Y21	Z21	X22	Y22	Z22	X23	Y23	Z23	X24	Y24	Z24	X25	Y25	Z25	X26	Y26	Z26	X27	Y27	Z27	X28	Y28	Z28	X29	Y29	Z29	X30	Y30	Z30	X31	Y31	Z31	X32	Y32	Z32	X33	Y33	Z33	

1	0	2236.846719246556	987.8459247816418	873.1024917654015	1939.215263633454	45.04255295495047	943.5915961595134	1972.638607501418	55.92055201750403	898.3796982810001	1954.874415762407	93.93562093448639	944.3848965621625	2131.54157532044	1046.131612693853	815.7785814853764	2167.48322377822	51.76044594362315	988.5951642678671	2137.820757426525	40.92314814202096	874.2148497104617	2048.411788396536	1002.578490510018	942.8911271045125	2062.717133270229	158.0072574514064	887.7305116168283	2024.123667088353	182.8653377645441	911.7140508180571	2095.36511886764	227.6755624900831	862.1764665420806	2058.978969836742	256.0554661807518	889.5779710617401	2218.439511823612	548.9424573783128	829.7581183609564	2167.274471409924	537.2174762515851	881.0894211042788	2176.532798786849	650.6979640967106	815.5095718001705	2131.209902617049	640.8756393816444	866.4650083935558	2235.645673074854	964.4594439412682	1089.97057773863	2010.033306906459	155.8554536598689	1089.994413099398	1840.133683883523	227.6956780578596	1026.027938285773	1858.447891568246	234.8402702869245	1069.585389914384	1882.473306765409	256.766941985249	1024.970817827735	2151.089057192708	1038.581149934432	1137.925618606466	2023.466245143961	82.65926511592536	1068.203574187518	1972.051173601983	129.5631213757325	1158.578929512715	2050.445787993056	992.7761131918194	1026.368198836101	1988.315576829116	293.9241955021483	1102.359271156263	1975.424911555235	320.5692613397592	1056.600394732809	2046.057838618631	349.8601261153781	1115.708855009818	2034.37889888932	373.3291806869033	1068.733723111214	2250.580881847049	542.4155139429603	1140.714374182594	2204.594693714345	529.3120530868284	1084.563066643888	2201.689234315056	641.2817793691034	1154.76260831195	2156.501803123154	626.6959679130116	1103.324140204094	
2	0.006666666666666667	2235.453756074108	988.6655647596957	873.0333418477136	1922.646784619953	45.92636312013993	943.5397286867832	1956.20407246577	56.78875730609051	898.469621261818	1938.521060623433	94.77771719017089	944.4765721857848	2130.600607867589	1047.82312572769	817.5510866101844	2150.756886962309	51.72011799790896	988.7678980492515	2121.151782506836	40.95604690399775	874.5845614401892	2047.340146431523	1004.201306508384	943.4274770315276	2047.002600463192	158.9935049785735	888.274451876024	2008.626970995949	183.9981541176255	912.323716999565	2080.189720283517	228.4175996958068	862.9086458096407	2043.960909330049	257.0609692312199	890.2475636875915	2208.526105771434	549.0643043625852	830.4743268110627	2156.366940431433	538.3414701477363	881.0109674466021	2168.983617209281	651.6240991401061	816.0464007933527	2122.763315505132	642.7644133667851	866.3731327563239	2234.550136913906	967.1575746305667	1090.213058167087	2028.888064131426	152.2731654476503	1090.773848667369	1855.132335771852	216.8727065554471	1029.103455728602	1873.665584308747	224.6913859609867	1072.483248711996	1896.176166409907	247.7071494026693	1027.834118276178	2149.250958205898	1041.147230610461	1138.307872869593	2044.642758688111	80.1811092401521	1068.655775232501	1992.482463893396	124.2636616290471	1159.650237107593	2049.104144094415	995.1292794584273	1026.764738941759	2001.671004594195	288.8149657612637	1103.972465694352	1987.323162260694	315.1406636633462	1058.576788005312	2057.531832687754	346.6545104523129	1117.063389941389	2044.512541397442	369.9206849092775	1070.324886907551	2256.890663242894	546.7757912337947	1141.181481212267	2210.747139591149	532.5119433568732	1085.476946944717	2206.153531454232	644.5321919986145	1155.313810833467	2160.875233294787	628.9658801604203	1104.228879226459	
3	0.01333333333333333	2234.134870813609	989.5711729561133	873.0094907707298	1906.102495644644	47.03985428912359	943.4663508372576	1939.798876237056	57.8269589812013	898.5279128357747	1922.225815987092	95.82933904306655	944.517164564723	2129.794558975119	1049.63552059293	819.2577941513225	2134.022707087456	51.69707373569959	988.9495199653793	2104.452158818281	41.01227837475532	874.9510177089584	2046.329542097692	1005.936954245105	943.9325250158868	2031.315706977334	160.1197145616862	888.7749087928688	1993.151005268365	185.2652416973997	912.8893738718632	2065.032336716995	229.3096238965017	863.6029740648966	2028.952938404205	258.2020663712614	890.8808098682862	2198.578990156132	549.3536631293966	831.2222953259725	2145.458740256046	539.6668370285719	880.9933850219778	2161.439335385109	652.7102783631857	816.610933731417	2114.353755264406	644.8394316261733	866.3274428620714	2233.492633559096	969.969060739366	1090.459085198351	2047.857402990883	148.7451288778586	1091.51252484977	1870.384773070224	206.0239246098263	1032.120258864907	1889.114681082465	214.5124238472102	1075.325066775698	1910.097337112318	238.6065752298182	1030.6491212431	2147.512838420263	1043.845741175728	1138.691000901708	2065.951011574119	77.76427347819805	1069.038180324425	2013.079218563705	119.0107869227288	1160.656231008175	2047.81350395523	997.5907902953496	1027.163690829833	2015.139442573573	283.6836280438492	1105.565504845126	1999.329613949298	309.665401976572	1060.520898918452	2069.056393614832	343.4244298711594	1118.40290092735	2054.694339619568	366.455820960295	1071.904580100181	2263.063851359465	551.2313307975259	1141.627271036077	2216.7912458895	535.8606371065821	1086.328823247614	2210.519944029308	647.8892358548817	1155.87386702194	2165.17387695648	631.3869005240699	1105.107633793708	
4	0.02	2232.956645037722	990.6403609694873	873.0794973785414	1889.59390947399	48.5864057082322	943.3574377005073	1923.439016489546	59.18347860280259	898.5298260119837	1906.032492128395	97.27842643688017	944.4634773686756	2129.253706732507	1051.671894178105	820.8377413361497	2117.277258488179	51.69729862182685	989.1466534254337	2087.693783067969	41.10354978244619	875.3113721498144	2045.434652609234	1007.893429134637	944.37892344252	2015.675234111264	161.515032128533	889.1913483515214	1977.709046651319	186.7916589923371	913.3710859867858	2049.901778647299	230.4900172864461	864.2227765397239	2013.957208667432	259.6047625771264	891.4427333120467	2188.563967349674	549.9649791702215	832.0251916686396	2134.543603003043	541.3798248357649	881.0843228778079	2153.901631499734	654.1043144725332	817.2241163264576	2106.00934263531	647.2733115140738	866.3639218805245	2232.503652855674	972.9975849300829	1090.717295729499	2067.059363111019	145.3028831517305	1092.180258554779	1886.130310790236	195.1022067128853	1035.021330361664	1905.010768849684	204.2533716390691	1078.057692236796	1924.443368902133	229.4065450209212	1033.367231245257	2145.954516895301	1046.792015974955	1139.078129513993	2087.530896952594	75.44795026384556	1069.300602560597	2033.99830724365	113.8283848956739	1161.54827436344	2046.618005169518	1000.264155117323	1027.569430799038	2028.830196008571	278.4951953743096	1107.117935543888	2011.54868990952	304.0856731866851	1062.40222562006	2080.681543927073	340.1368745295927	1119.712091591438	2064.971296158151	362.8738192098519	1073.459636637579	2268.980530302136	555.87732276311	1142.02839192145	2222.624738007306	539.4957950603532	1087.067999765829	2214.705601184176	651.4616560253636	1156.443415329386	2169.329579162883	634.1025904886468	1105.938135306262	
